<svg xmlns="http://www.w3.org/2000/svg" width="32" height="32"><circle cx="16" cy="16" r="16" fill="#1c1c36"/><path fill="#fff" d="M9.6 16c-.3-.3-.5-.6-.8-.9 0 0-.1-.1-.2-.1-.7.1-1.3-.3-1.5-.9-.2-.4-.1-.9.1-1.3.1-.1.1-.3.1-.5-.1-.4-.2-.8-.2-1.2 0-1 .8-1.9 1.8-2.1.9-.2 1.7-.2 2.6 0 .3.1.6.2.9.2l.3.1c.2-.8.6-1.5 1-2.2.2-.3.5-.6.8-.9.8-.9 2.2-.9 3.1-.1.6.5 1.1 1.2 1.4 1.9.2.4.4.9.6 1.4l.3-.1c.7-.2 1.4-.3 2.1-.4.5-.1 1.1 0 1.6.1 1.1.3 1.7 1.4 1.5 2.5-.1 1-.5 1.9-1.1 2.7l-1.2 1.6-.3.2c.3.3.5.6.8.9h.2c.4 0 .8.1 1.1.3.6.5.7 1.3.3 1.9-.1.1-.1.3-.1.4.2.5.2 1.1.1 1.7-.2.9-.8 1.6-1.7 1.8a3.75 3.75 0 0 1-2.1 0c-.5-.1-1-.2-1.5-.4-.1 0-.2 0-.3.1-.2.7-.6 1.5-1 2.1-.3.4-.6.8-1 1.1a2.25 2.25 0 0 1-2.7 0c-.6-.5-1.1-1.1-1.4-1.8l-.6-1.4c-.1-.1-.1-.2-.3-.1-.9.3-1.8.5-2.8.5-.4 0-.8-.1-1.2-.3-1-.4-1.6-1.5-1.3-2.6.2-1 .6-1.9 1.2-2.7L9.3 16h.3zm3.1 0v1.4c0 .1 0 .2.1.3l3 2.2c.1.1.2.1.3 0l3-2.2c.1-.1.1-.1.1-.2v-3c0-.1-.1-.3-.2-.3-.3-.2-.5-.4-.8-.6l-2.1-1.4c-.1-.1-.2-.1-.3 0-1 .6-2.1 1.4-3 2.1-.1.1-.2.2-.2.4l.1 1.3zm9.1-.7c.4-.5.7-.9 1-1.4.5-.7.9-1.4 1.1-2.2.3-.7-.1-1.5-.9-1.8-.2-.1-.4-.1-.6-.1h-.5c-.8 0-1.5.2-2.2.4v.1c.3 1.1.4 2.2.5 3.4 0 .1 0 .1.1.2l1 .9.5.5zm-11.6 1.4s0 .1 0 0l-1.4 1.9c-.4.6-.7 1.2-.8 1.9 0 .6.2 1.2.8 1.5.2.1.4.2.6.2.9.1 1.9-.1 2.7-.4.2 0 .2-.2.1-.3l-.5-3.1c0-.1 0-.2-.1-.3-.4-.5-.9-.9-1.4-1.4zm2.1-6.4l-.3-.1c-.9-.3-1.8-.4-2.8-.3A1.11 1.11 0 0 0 8.1 11v.9c0 .3.1.3.3.3.8 0 1.4.7 1.3 1.5 0 .2-.1.4-.2.6v.2c.2.3.4.5.6.8l.2-.1 1.3-1.2c.1-.1.2-.2.2-.3.1-.6.1-1.2.2-1.8l.3-1.6zm7.4 11.4l.3.1 1.5.3c.5.1 1 .1 1.5-.1.6-.1 1-.6 1-1.2 0-.3 0-.6-.1-.8 0-.2-.1-.3-.3-.3-.3 0-.6-.1-.9-.4-.5-.4-.6-1.1-.3-1.7 0-.1.1-.2.1-.2-.2-.3-.4-.5-.6-.8l-.2.1-1.3 1.3c-.1.1-.1.2-.2.3-.1.6-.2 1.2-.2 1.8l-.3 1.6zM16 25.5h.1c.5-.1.9-.4 1.2-.8.5-.7.8-1.4 1.1-2.1.1-.2.1-.2-.1-.4l-2.2-1.1h-.2c-.7.4-1.5.7-2.2 1.1-.1 0-.2.1-.1.3v.1l.7 1.6c.2.4.5.7.8 1 .3.2.6.3.9.3zM13.5 9.6c0 .1.1.1.2.1.7.4 1.5.7 2.2 1.1h.2l2.3-1.1c.1-.1.1-.1.1-.2-.1-.3-.2-.6-.4-1-.2-.6-.6-1.1-1-1.6-.3-.3-.7-.4-1.1-.4s-.7.2-1 .5c-.5.5-.9 1.1-1.1 1.8l-.4.8zm1.5 1.9l-.1-.1c-.5-.2-.9-.4-1.4-.7-.2-.1-.3-.1-.3.2-.1.5-.2.9-.2 1.4 0 .2-.1.4-.1.7l2.1-1.5zM12.8 19v.3l.3 1.9c0 .2.1.2.3.1l1.4-.7c.1 0 .1-.1.1-.1L12.8 19zm4.2 1.5l.1.1 1.5.7c.1.1.2 0 .2-.1l.3-1.5c0-.2.1-.4.1-.6L17 20.5zm2.1-7.5v-.1l-.3-2c0-.2-.1-.2-.3-.1l-1.4.7H17l2.1 1.5zm-7.4 2.2l-.8.8.8.8v-1.6zm8.6 1.5l.8-.7-.8-.8v1.5z"/></svg>