<svg xmlns="http://www.w3.org/2000/svg" width="32" height="32" viewBox="0 0 32 32"><defs><style>.a{fill:#1c1c36;}.b{fill:#fff;}</style></defs><title>atom</title><circle class="a" cx="16" cy="16" r="16"/><path class="b" d="M9.55,16c-.26-.32-.5-.63-.76-.93,0,0-.13-.05-.2-.05a1.43,1.43,0,0,1-1.54-.9,1.34,1.34,0,0,1,.13-1.3.63.63,0,0,0,.07-.5,5,5,0,0,1-.16-1.21A2.22,2.22,0,0,1,8.85,9a5.4,5.4,0,0,1,2.59,0c.31.07.61.16.91.24l.27.06a8.37,8.37,0,0,1,1-2.23,6.67,6.67,0,0,1,.76-.91,2.22,2.22,0,0,1,3.08-.11A5,5,0,0,1,18.85,8c.2.43.37.88.56,1.35l.27-.06a10.46,10.46,0,0,1,2.06-.42A4.2,4.2,0,0,1,23.36,9a2.25,2.25,0,0,1,1.54,2.52,5.65,5.65,0,0,1-1.08,2.66c-.36.54-.79,1-1.18,1.57l-.19.22c.26.32.51.63.78.93a.31.31,0,0,0,.22,0,1.44,1.44,0,0,1,1.09.33,1.41,1.41,0,0,1,.26,1.91.39.39,0,0,0-.06.41,3.14,3.14,0,0,1,.13,1.69A2.2,2.2,0,0,1,23.21,23a4.51,4.51,0,0,1-2.13.05c-.5-.09-1-.22-1.48-.35-.15,0-.22,0-.27.14a9.64,9.64,0,0,1-1,2.13,4.24,4.24,0,0,1-1,1.06,2.15,2.15,0,0,1-2.66,0,4.56,4.56,0,0,1-1.41-1.79c-.21-.46-.39-.92-.57-1.39-.06-.15-.11-.19-.28-.14a8.07,8.07,0,0,1-2.76.45,3.14,3.14,0,0,1-1.21-.27A2.29,2.29,0,0,1,7.1,20.33a6.68,6.68,0,0,1,1.17-2.67c.35-.52.76-1,1.15-1.49Zm3.14,0h0v1.43a.31.31,0,0,0,.12.28c1,.79,2,1.47,3,2.16a.27.27,0,0,0,.33,0,29.22,29.22,0,0,0,3-2.16.31.31,0,0,0,.11-.2c0-1,0-2,0-3a.38.38,0,0,0-.17-.33c-.28-.21-.54-.44-.83-.64l-2.12-1.44a.24.24,0,0,0-.29,0,26.61,26.61,0,0,0-3,2.13.46.46,0,0,0-.17.38Zm9.11-.73c.37-.47.73-.91,1.05-1.37a5.85,5.85,0,0,0,1.07-2.25,1.42,1.42,0,0,0-1.48-1.87h-.55a6.87,6.87,0,0,0-2.23.45s0,.08,0,.11a25.52,25.52,0,0,1,.53,3.36.32.32,0,0,0,.1.19l1,.94ZM10.19,16.7a.36.36,0,0,0,0,.09c-.46.6-.93,1.19-1.35,1.82a4.32,4.32,0,0,0-.75,1.9A1.34,1.34,0,0,0,8.78,22a2.41,2.41,0,0,0,.65.18,6.3,6.3,0,0,0,2.72-.39c.17-.05.16-.16.14-.3-.16-1-.32-2.09-.49-3.13a.47.47,0,0,0-.11-.27C11.21,17.63,10.71,17.18,10.19,16.7Zm2.14-6.43,0,0L12,10.17a6.27,6.27,0,0,0-2.75-.33A1.29,1.29,0,0,0,8.07,11a4.15,4.15,0,0,0,0,.93c0,.27.05.27.32.29a1.42,1.42,0,0,1,1.33,1.53,3.43,3.43,0,0,1-.16.61c0,.07,0,.17,0,.21.19.26.4.51.61.77l.17-.15L11.65,14a.46.46,0,0,0,.16-.33c.07-.61.14-1.22.24-1.83S12.23,10.79,12.33,10.27Zm7.34,11.47.28.09c.51.12,1,.24,1.52.34a3.13,3.13,0,0,0,1.46-.06,1.29,1.29,0,0,0,1-1.2,4.79,4.79,0,0,0-.09-.84c0-.2-.12-.26-.31-.27a1.38,1.38,0,0,1-.88-.36,1.45,1.45,0,0,1-.3-1.71c0-.08.09-.19.06-.23-.2-.27-.42-.51-.63-.77l-.16.13L20.36,18a.47.47,0,0,0-.16.31q-.11.91-.24,1.83C19.88,20.69,19.77,21.2,19.67,21.74ZM16,25.54l.15,0a1.76,1.76,0,0,0,1.19-.78,7.27,7.27,0,0,0,1.09-2.15c.08-.23.07-.25-.14-.35L16.1,21.17a.23.23,0,0,0-.18,0c-.74.35-1.48.72-2.22,1.08a.21.21,0,0,0-.12.32c.24.55.47,1.11.74,1.65a2.91,2.91,0,0,0,.8,1A1.4,1.4,0,0,0,16,25.54ZM13.52,9.59a.65.65,0,0,0,.16.13c.74.37,1.47.74,2.21,1.09a.25.25,0,0,0,.19,0l2.26-1.09c.11-.06.14-.13.09-.24-.12-.32-.22-.64-.35-1a4.6,4.6,0,0,0-1-1.58A1.46,1.46,0,0,0,16,6.48a1.54,1.54,0,0,0-1,.49,5.09,5.09,0,0,0-1.11,1.78ZM15,11.47l-.11-.08c-.47-.22-.93-.45-1.4-.66-.24-.11-.28-.09-.33.16-.09.47-.17.94-.25,1.41,0,.22-.07.45-.11.69ZM12.84,19a1.84,1.84,0,0,0,0,.28c.1.62.21,1.24.33,1.85,0,.22.07.24.28.14l1.37-.68a1,1,0,0,0,.15-.1ZM17,20.52s.07.07.1.08l1.46.71c.15.07.21,0,.23-.13.09-.51.19-1,.28-1.52,0-.2.06-.39.09-.63ZM19.15,13a.74.74,0,0,0,0-.15c-.11-.65-.22-1.3-.34-2,0-.21-.09-.24-.29-.14l-1.42.67-.11.08ZM11.7,15.2l-.82.83.82.77Zm8.59,1.54.05,0,.75-.7-.79-.83s0,.07,0,.1Z"/></svg>