<svg xmlns="http://www.w3.org/2000/svg" width="32" height="32" viewBox="0 0 32 32"><defs><style>.a{fill:#e81a4c;}.b{fill:#fff;}</style></defs><title>btt</title><circle class="a" cx="16" cy="16" r="16"/><path class="b" d="M10.3,20.33a9.09,9.09,0,0,1-.39-6.21,7.75,7.75,0,0,1,10.5-4.66l-.54,1.38c-5-.4-7.7,1.09-8.37,4.53a6.6,6.6,0,0,0,4.89,7.51c-3.19-2-5.32-4.19-4.22-7.89a5.36,5.36,0,0,1,4.76-3.9A5.38,5.38,0,0,1,22.38,14l-1.67,1A5.07,5.07,0,0,0,20,13.87a3.76,3.76,0,0,0-5.51,5,6.26,6.26,0,0,0,4.87,2.64c1.79.13,3.59,0,5.42,0-1.34,2.71-4.79,3.89-8.36,2.92C13.51,24.36,11.66,22.71,10.3,20.33Z"/><path class="b" d="M10.3,20.33c1.36,2.38,3.21,4,6.1,4.16l1.59.75c-1.75.87-6-.17-8.09-2.16C7.31,20.63,6.49,16,8,12.44a9.73,9.73,0,0,1,9.37-6L17.46,8c-.79.16-1.51.28-2.22.45a8.13,8.13,0,0,0-5.57,11A4,4,0,0,0,10.3,20.33Z"/></svg>