<svg xmlns="http://www.w3.org/2000/svg" width="32" height="32"><circle cx="16" cy="16" r="16" fill="#e81a4c"/><g fill="#fff"><path d="M10.3 20.3c-.9-2-1-4.2-.4-6.2 1.3-4.1 5.7-6.3 9.8-4.9.2.1.5.2.7.3l-.5 1.4c-5-.4-7.7 1.1-8.4 4.5-.6 3.4 1.5 6.7 4.9 7.5-3.2-2-5.3-4.2-4.2-7.9.6-2.2 2.5-3.7 4.8-3.9 2.2-.3 4.4.9 5.4 2.9l-1.7 1c-.2-.4-.4-.8-.7-1.1-1.6-1.3-4-1.1-5.3.5-1.1 1.3-1.1 3.1-.2 4.5 1.1 1.6 2.9 2.6 4.9 2.6 1.8.1 3.6 0 5.4 0-1.3 2.7-4.8 3.9-8.4 2.9-2.9 0-4.7-1.7-6.1-4.1z"/><path d="M10.3 20.3c1.4 2.4 3.2 4 6.1 4.2l1.6.8c-1.8.9-6-.2-8.1-2.2C7.3 20.6 6.5 16 8 12.4c1.6-3.8 5.3-6.2 9.4-6l.1 1.6c-.8.2-1.5.3-2.2.5-4.4 1.1-7 5.5-6 9.8.1.4.2.8.4 1.2.1.3.4.6.6.8z"/></g></svg>