<svg xmlns="http://www.w3.org/2000/svg" width="32" height="32"><circle cx="16" cy="16" r="16" fill="#008bcd"/><path d="M15.5 25.4c-.2-.2-.5-.4-.6-.6-.4-.6-.2-1.3.4-1.7.2-.1.5-.2.8-.2 1.4 0 2.7-.5 3.8-1.3 2-1.3 3.1-3.6 2.9-6 0-.7-.2-.9-.9-.9H16c-.7-.1-1.3.4-1.4 1.1v.1c0 .7.5 1.2 1.2 1.3H19.1c.7 0 .9.2.5.9-1.2 2.1-3.8 2.9-5.9 1.7-2.1-1.2-2.9-3.8-1.7-5.9s3.8-2.9 5.9-1.7c0 0 .1 0 .1.1.2.1.5.3.7.5.6.4 1.4.3 1.8-.2.4-.6.3-1.4-.3-1.8-1.2-1-2.7-1.5-4.2-1.6-.9 0-1.6-.7-1.3-1.5.2-.4.5-.8.8-1.1h1.4c.2.1.4.1.6.2 4.2.8 7.3 4.2 7.7 8.4.4 4.6-2.7 8.8-7.2 10-.3.1-.7.2-1 .3h-1.5zM6.8 15.6c.1-.1.2-.2.3-.4.4-.5 1.2-.5 1.6-.1.5.4.5 1.2.1 1.6-.5.4-1.2.4-1.6-.1l-.1-.1-.3-.4v-.5zM13.2 8.9c0 .6-.5 1.2-1.2 1.2-.6 0-1.2-.5-1.2-1.2 0-.6.5-1.2 1.2-1.2.7.1 1.2.6 1.2 1.2zM12.1 21.9c.6 0 1.1.5 1.2 1.1-.1.6-.6 1.1-1.3 1.1-.6 0-1-.5-1.1-1.1 0-.6.5-1.1 1.2-1.1zM10.3 12c0 .6-.5 1.1-1.1 1.2h-.1c-.6-.1-1.1-.6-1-1.3.1-.6.5-1 1.1-1 .6-.1 1.1.5 1.1 1.1zM10.3 20c0 .6-.5 1.1-1.2 1.1-.6 0-1.1-.5-1.1-1.1 0-.6.5-1.1 1.2-1.1.6-.1 1.1.4 1.1 1.1z" fill="#fff"/></svg>