<svg xmlns="http://www.w3.org/2000/svg" width="32" height="32" viewBox="0 0 32 32"><defs><style>.a{fill:#008bcd;}.b{fill:#fff;}</style></defs><title>go</title><circle class="a" cx="16" cy="16" r="16"/><path class="b" d="M15.38,26.75a4.11,4.11,0,0,1-.74-.7,1.39,1.39,0,0,1,1.3-2.14,7.71,7.71,0,0,0,4.38-1.43,7.65,7.65,0,0,0,3.36-6.86c0-.78-.27-1-1.06-1H16A1.43,1.43,0,0,0,14.43,16,1.41,1.41,0,0,0,16,17.42c1.19,0,2.38,0,3.58,0,.84,0,1,.28.6,1a5,5,0,1,1-1.88-6.72c.27.16.52.37.8.54A1.57,1.57,0,0,0,21.21,12a1.45,1.45,0,0,0-.41-2.05A7.83,7.83,0,0,0,16,8.13c-1,0-1.78-.79-1.51-1.66a4.51,4.51,0,0,1,.91-1.22H17a5.53,5.53,0,0,0,.65.22,10.85,10.85,0,0,1,8.82,9.62,10.85,10.85,0,0,1-8.2,11.37c-.38.08-.75.19-1.13.29Z"/><path class="b" d="M5.46,15.59c.11-.14.22-.28.34-.41A1.33,1.33,0,1,1,7.74,17a1.33,1.33,0,0,1-1.95-.15l-.33-.42Z"/><path class="b" d="M12.84,7.91a1.34,1.34,0,1,1-1.31-1.32A1.34,1.34,0,0,1,12.84,7.91Z"/><path class="b" d="M11.52,22.76a1.35,1.35,0,0,1,1.32,1.31,1.34,1.34,0,0,1-2.67,0A1.34,1.34,0,0,1,11.52,22.76Z"/><path class="b" d="M9.49,11.43a1.3,1.3,0,0,1-1.35,1.33,1.34,1.34,0,0,1,.06-2.67A1.32,1.32,0,0,1,9.49,11.43Z"/><path class="b" d="M9.49,20.61a1.32,1.32,0,0,1-1.39,1.3,1.34,1.34,0,0,1-1.26-1.37,1.33,1.33,0,0,1,1.33-1.29A1.31,1.31,0,0,1,9.49,20.61Z"/></svg>