<svg xmlns="http://www.w3.org/2000/svg" width="32" height="32" viewBox="0 0 32 32"><defs><style>.a{fill:#56428e;}.b{fill:#fff;}</style></defs><title>hc</title><circle class="a" cx="16" cy="16" r="16"/><path class="b" d="M17.62,7.11h4.43A1.46,1.46,0,0,1,22,7.3l-.57,1.12c0,.06-.09.13-.08.19,0,.45-.08.88-.09,1.32,0,.79,0,1.59,0,2.39s0,1.62,0,2.43a15.51,15.51,0,0,0,.07,2.36,6.2,6.2,0,0,1,0,1.22.49.49,0,0,1,0,.21c-.15.32,0,.65-.06,1,0,0,.07.09.11.14h1.31a15.51,15.51,0,0,0,.93-2.07c.26,0,.52,0,.77,0,1-.07,2,.14,2.95.09l.16.13a7.48,7.48,0,0,0-1.13,1.39c-.24.38-.48.76-.71,1.15-.32.55-.59,1.12-.94,1.67H14.32l-.14.15c0,.27.06.59.12.9a1.32,1.32,0,0,0,.19.46,5.39,5.39,0,0,0,1.24,1.37H10v-.14c.28-.25.58-.49.85-.76a1.59,1.59,0,0,0,.51-1.19q0-4.86,0-9.7v-.38h2.88c0,.7,0,1.38,0,2h4V12.47l-.11-.12H10L8,16l2.1,3.67h1V22H8a2,2,0,0,0-.2-.41c-.34-.49-.59-1-.89-1.53S6.27,19,6,18.45s-.76-1.34-1.16-2l-.23-.4s0,0,0,0V16a8.32,8.32,0,0,0,.81-1.35c.18-.28.3-.6.48-.88.33-.49.6-1,.89-1.52s.64-1,.9-1.61A3.76,3.76,0,0,1,8,10h3.5c0-.29-.1-.56-.11-.83a2.65,2.65,0,0,0-.16-.7,3.32,3.32,0,0,0-.48-1.07,1.07,1.07,0,0,1-.09-.27h4.42c-.19.43-.45.83-.6,1.28A3.33,3.33,0,0,0,14.3,10h4.07a.94.94,0,0,0,.06-.28,2.92,2.92,0,0,1-.09-.5,2,2,0,0,0-.09-.55,4.73,4.73,0,0,0-.3-.82A2.14,2.14,0,0,1,17.62,7.11ZM14.3,17.23v2.31l.11.11h3.83c.2-.23.08-.51.1-.77s0-.57,0-.86v-.79Z"/><path class="b" d="M16.9,24.89c.07-.15.22-.21.34-.3a3.75,3.75,0,0,0,1-1.17,1.43,1.43,0,0,0,.21-1h2.7c.1.17-.07.43.11.6a3,3,0,0,0,1.22,1.65c.1.06.15.17.23.26Z"/><path class="b" d="M27.37,14.05v.25l-.09,0c-.62,0-1.23.13-1.85.1s-1.27,0-1.9,0a6.56,6.56,0,0,0-.9-2.09H21.7V10h2.95a6,6,0,0,1,.65,1.05c.34.6.63,1.22,1,1.79A11.26,11.26,0,0,0,27.37,14.05Z"/></svg>