<svg xmlns="http://www.w3.org/2000/svg" width="32" height="32"><circle cx="16" cy="16" r="16" fill="#56428e"/><path d="M17.6 7.1H22c0 .1 0 .1-.1.2l-.6 1.1c0 .1-.1.1-.1.2 0 .4-.1.9-.1 1.3v4.8l.1 2.4v1.4c-.1.3 0 .6-.1 1l.1.1h1.3c.4-.7.7-1.4.9-2.1h.8c1-.1 2 .1 3 .1l.2.1a7.55 7.55 0 0 0-1.1 1.4c-.2.4-.5.8-.7 1.1-.3.5-.6 1.1-.9 1.7H14.3l-.1.1c0 .3.1.6.1.9 0 .2.1.3.2.5.3.5.8 1 1.2 1.4H10v-.1c.3-.2.6-.5.9-.8s.5-.7.5-1.2V12.6h2.9v2h4v-2.3l-.1-.1H10L8 16l2.1 3.7h1V22H8c-.1-.1-.1-.3-.2-.4l-.9-1.5c-.3-.5-.6-1.1-.9-1.7s-.8-1.3-1.2-2l-.2-.4c.3-.4.6-.9.8-1.4.2-.3.3-.6.5-.9l.9-1.5.9-1.6.3-.6h3.5c0-.3-.1-.6-.1-.8s-.1-.5-.2-.7c-.1-.4-.3-.7-.5-1.1 0-.1-.1-.2-.1-.3H15l-.6 1.3c-.2.5-.3 1.1-.2 1.6h4.1c0-.1.1-.2.1-.3 0-.2-.1-.3-.1-.5s0-.4-.1-.6l-.3-.8c-.1-.2-.2-.4-.3-.7zm-3.3 10.1v2.3l.1.1h3.8c.2-.2.1-.5.1-.8v-1.7l-4 .1zm2.6 7.7l.3-.3c.4-.3.8-.7 1-1.2.2-.3.3-.7.2-1h2.7c.1.2-.1.4.1.6.2.7.6 1.3 1.2 1.6.1.1.1.2.2.3h-5.7zM27.4 14v.2h-.1c-.6 0-1.2.1-1.9.1h-1.9c-.2-.7-.5-1.5-.9-2.1h-.9V10h3c.3.3.5.7.6 1.1l1 1.8a5.73 5.73 0 0 0 1.1 1.1z" fill="#fff"/></svg>