<svg xmlns="http://www.w3.org/2000/svg" width="32" height="32"><g fill="none" fill-rule="evenodd"><circle cx="16" cy="16" r="16" fill="#103F68"/><path fill="#FFF" fill-rule="nonzero" d="M23.49,11.12a5.14,5.14,0,0,1,.88.08.36.36,0,0,0,.42-.36V9.51a.36.36,0,0,0-.29-.36A7,7,0,0,0,23.28,9a6.89,6.89,0,0,0-6.75,5.52.36.36,0,0,1-.35.29h-1a.35.35,0,0,1-.35-.29,6.88,6.88,0,0,0-8-5.41.37.37,0,0,0-.3.36v1.33A.36.36,0,0,0,7,11.2a5.05,5.05,0,0,1,.88-.08,4.82,4.82,0,0,1,4.55,3.24.37.37,0,0,1-.34.49H10.91a.35.35,0,0,0-.35.27l-.39,1.5a.36.36,0,0,0,.35.45H12a.37.37,0,0,1,.34.5,4.82,4.82,0,0,1-4.53,3.19A4.24,4.24,0,0,1,7,20.67a.37.37,0,0,0-.43.37v1.32a.37.37,0,0,0,.3.36,6.08,6.08,0,0,0,1.22.12,6.9,6.9,0,0,0,6.74-5.47.35.35,0,0,1,.35-.29h1.05a.37.37,0,0,1,.35.29,6.9,6.9,0,0,0,6.74,5.47,6.16,6.16,0,0,0,1.22-.12.36.36,0,0,0,.29-.36V21a.37.37,0,0,0-.42-.37,4.31,4.31,0,0,1-.88.09A4.83,4.83,0,0,1,19,17.59a.38.38,0,0,1,.34-.5h1a.37.37,0,0,0,.35-.27L21,15.3a.36.36,0,0,0-.35-.45H19.28a.36.36,0,0,1-.34-.49A4.8,4.8,0,0,1,23.49,11.12Z"/></g></svg>