<?xml version="1.0" encoding="utf-8"?>
<!-- Generator: Adobe Illustrator 22.1.0, SVG Export Plug-In . SVG Version: 6.00 Build 0)  -->
<svg version="1.1" id="Layer_1" xmlns="http://www.w3.org/2000/svg" xmlns:xlink="http://www.w3.org/1999/xlink" x="0px" y="0px"
	 viewBox="0 0 32 32" style="enable-background:new 0 0 32 32;" xml:space="preserve">
<style type="text/css">
	.st0{fill:#316DBC;}
	.st1{fill:#FFFFFF;}
</style>
<g>
	<circle class="st0" cx="16" cy="16" r="16"/>
</g>
<path class="st1" d="M21.1,24L8.7,15.3c-1.5-1-1.8-3-0.8-4.5c0.2-0.3,0.5-0.6,0.8-0.8l3-2.1l12.4,8.7c1.5,1,1.8,3,0.8,4.5
	c-0.2,0.3-0.5,0.6-0.8,0.8L21.1,24z M11.7,9.4L9.4,11c-0.9,0.7-1.2,1.9-0.5,2.9c0.1,0.2,0.3,0.4,0.5,0.5l11.7,8.2l2.3-1.6
	c0.9-0.7,1.2-1.9,0.5-2.9c-0.1-0.2-0.3-0.4-0.5-0.5L11.7,9.4z"/>
<path class="st1" d="M11.7,22.6L9.4,21c-0.9-0.7-1.2-1.9-0.5-2.9c0.1-0.2,0.3-0.4,0.5-0.5l6-4.2l-1-0.7l-5.7,4c-1.5,1-1.8,3-0.8,4.5
	c0.2,0.3,0.5,0.6,0.8,0.8l3,2.1l3.7-2.6l-1-0.7L11.7,22.6z M24.1,10.1l-3-2.1l-3.7,2.6l1,0.7l2.7-1.9l2.3,1.6
	c0.9,0.7,1.2,1.9,0.5,2.9c-0.1,0.2-0.3,0.4-0.5,0.5l-6,4.2l1,0.7l5.7-4c1.5-1,1.8-3,0.8-4.5C24.7,10.6,24.4,10.3,24.1,10.1
	L24.1,10.1z"/>
<path class="st1" d="M9.4,16.2l4.7-3.3l0.7,0.9l-4.7,3.3L9.4,16.2z"/>
<path class="st1" d="M22.8,14.8l-2.3,1.6l0.7,0.9l2.4-1.7C23.3,15.4,23.1,15.1,22.8,14.8L22.8,14.8z"/>
</svg>
