<svg xmlns="http://www.w3.org/2000/svg" width="32" height="32"><circle cx="16" cy="16" r="16" fill="#2891f9"/><path fill="#fff" d="M18.8 17.4l-2.4 1.4c-.2.2-.5.2-.8 0l-2.4-1.4c-.1.6-.1 1.2 0 1.7.3 1.2-.3 2.4-1.5 2.7h-.1c-.3.1-.6.3-.8.5s-.5.2-.7 0L8 21.1c-.2-.1-.3-.3-.3-.6v-9.3c0-.2.2-.4.4-.5l2-1.2c.3-.2.6-.2.9 0l7.4 4.3c.2.1.3.2.6.3v-2.7c0-.3.1-.6.4-.7l2.1-1.2c.2-.1.4-.1.6 0l2.2 1.2a.55.55 0 0 1 .3.5v9.3a.55.55 0 0 1-.3.5c-.7.4-1.4.9-2.2 1.2-.2.1-.4.1-.6 0-.8-.4-1.5-.8-2.2-1.3a.55.55 0 0 1-.3-.5c-.2-.8-.2-1.8-.2-3z"/></svg>