<svg xmlns="http://www.w3.org/2000/svg" width="32" height="32" viewBox="0 0 32 32"><defs><style>.a{fill:#2891f9;}.b{fill:#fff;}</style></defs><title>matic</title><circle class="a" cx="16" cy="16" r="16"/><path class="b" d="M18.8,17.43c-.89.51-1.66.94-2.41,1.4a.65.65,0,0,1-.77,0c-.76-.46-1.55-.9-2.42-1.4a9.93,9.93,0,0,0,0,1.74,2.2,2.2,0,0,1-1.62,2.77,3.41,3.41,0,0,0-.83.47.59.59,0,0,1-.72,0c-.7-.43-1.42-.8-2.1-1.24a.83.83,0,0,1-.34-.57q0-4.63,0-9.27A.79.79,0,0,1,8,10.79c.66-.42,1.35-.78,2-1.19a.74.74,0,0,1,.86,0c2.46,1.44,4.93,2.85,7.39,4.27.17.1.33.18.59.31,0-1,0-1.84,0-2.72a.68.68,0,0,1,.4-.71c.7-.37,1.37-.8,2.08-1.17a.82.82,0,0,1,.65,0c.74.38,1.46.8,2.16,1.24a.74.74,0,0,1,.31.53c0,3.11,0,6.23,0,9.34a.79.79,0,0,1-.32.52c-.71.44-1.43.85-2.16,1.24a.71.71,0,0,1-.57,0c-.76-.41-1.51-.84-2.24-1.3a.7.7,0,0,1-.29-.54C18.78,19.59,18.8,18.57,18.8,17.43Z"/></svg>