<svg xmlns="http://www.w3.org/2000/svg" width="32" height="32"><circle cx="16" cy="16" r="16" fill="#b90000"/><path d="M15.8 27.4c-.5-.3-.7-.9-.6-1.4v-8.7c1.1.2 1.5.6 1.5 1.5v7.1c0 .6 0 1.1-.6 1.4h-.3zm.3-22.8c.5.3.7.8.6 1.3v8.8c-1.3-.4-1.4-.6-1.4-1.7V6c0-.6.1-1.1.7-1.4h.1zm-10 5.7l1.5-.7v4.2c.1.9-.5 1.2-1.1 1.6-.1.1-.2-.1-.4-.1v-5zm0 8.8l1.4-1.2v4.5l-1.4-.7v-2.6zm12.2-13c1.4.5 1.5.6 1.5 1.8v8.3c-1.2.1-1.4-.1-1.4-1.1l-.1-9zm-4.7 19.8c-1.4-.5-1.4-.5-1.4-1.8v-7.6c0-.3-.1-.8.4-.7.4.1 1-.1 1 .7v9.4zm7.8-18c1.2.3 1.4.5 1.4 1.6v4.9c0 1.1-.2 1.2-1.4 1.4V7.9zm-10.8 8.3V24c-1.1-.2-1.4-.5-1.4-1.5v-5c0-.9.3-1.2 1.4-1.3zm7.8 9.6v-7.1h.9c.2.1.5.3.5.5v5.6c0 .4-.7.8-1.1 1.2l-.3-.2zM13.6 6v7.4c-.3 0-.7 0-1-.1-.2-.1-.3-.3-.4-.5V7.2c0-.8.9-.7 1.4-1.2zm7.8 18.1v-4.5c0-1.2.2-1.3 1.4-1.3v4.9c0 .4-.7.7-1.1 1l-.3-.1zM10.7 7.9v4.5c0 1.1-.2 1.2-1.5 1.3V9.6c0-1.2.1-1.3 1.5-1.7zm13.7 14.4v-4.8c0-.4.8-.7 1.2-1.1l.2.1v4.1c0 1.2-.1 1.4-1.4 1.7zm.1-12.6c1.1.2 1.3.5 1.4 1.6s0 1.9-.9 2.5c-.1.1-.2.1-.5.2V9.7z" fill="#fff"/></svg>