<svg xmlns="http://www.w3.org/2000/svg" width="32" height="32" viewBox="0 0 32 32"><defs><style>.a{fill:#b90000;}.b{fill:#fff;}</style></defs><title>phb</title><circle class="a" cx="16" cy="16" r="16"/><path class="b" d="M15.84,27.37a1.37,1.37,0,0,1-.58-1.4c0-2.62,0-5.25,0-7.87v-.79c1.06.16,1.45.58,1.45,1.52,0,2.38,0,4.77,0,7.15,0,.58-.05,1.07-.6,1.39Z"/><path class="b" d="M16.13,4.63a1.25,1.25,0,0,1,.6,1.31c0,2.67,0,5.34,0,8v.79c-1.29-.41-1.45-.6-1.45-1.73,0-2.34,0-4.67,0-7,0-.64.08-1.12.73-1.37Z"/><path class="b" d="M6.14,10.28,7.6,9.57c0,1.51-.09,2.88,0,4.23.08.95-.52,1.25-1.11,1.64-.07.05-.25-.06-.38-.09Z"/><path class="b" d="M6.14,19.11l1.39-1.18v4.49l-1.39-.7Z"/><path class="b" d="M18.31,6.09c1.41.49,1.45.55,1.45,1.82v7.45c0,.26,0,.51,0,.76-1.24.08-1.41-.06-1.41-1.14V6.09Z"/><path class="b" d="M13.61,25.88c-1.36-.48-1.38-.51-1.38-1.76,0-2.52,0-5.05,0-7.58,0-.3-.14-.79.42-.7.4.07,1-.09,1,.68q0,4.52,0,9A2.2,2.2,0,0,1,13.61,25.88Z"/><path class="b" d="M21.41,7.93c1.16.26,1.38.52,1.38,1.55V14.4c0,1.07-.16,1.23-1.38,1.42Z"/><path class="b" d="M10.59,16.24v7.84c-1.05-.17-1.4-.55-1.4-1.5v-5C9.19,16.58,9.49,16.3,10.59,16.24Z"/><path class="b" d="M18.36,25.82V18.7a3.05,3.05,0,0,1,.91,0c.2.07.47.34.47.53,0,1.85.09,3.72,0,5.56,0,.43-.71.81-1.09,1.2Z"/><path class="b" d="M13.63,6v7.35a5.1,5.1,0,0,1-1-.08.67.67,0,0,1-.35-.49c0-1.86,0-3.71,0-5.56C12.25,6.4,13.09,6.48,13.63,6Z"/><path class="b" d="M21.35,24.07V19.61c0-1.16.16-1.32,1.44-1.31,0,1.63.08,3.27-.05,4.9,0,.37-.74.68-1.14,1Z"/><path class="b" d="M10.66,7.9v4.54c0,1.1-.17,1.25-1.47,1.27V9.62C9.19,8.42,9.26,8.33,10.66,7.9Z"/><path class="b" d="M24.4,22.35c0-1.65-.08-3.24.05-4.81,0-.4.75-.74,1.16-1.11l.23.11v4.13C25.84,21.81,25.69,22,24.4,22.35Z"/><path class="b" d="M24.46,9.67c1.15.25,1.34.52,1.39,1.55s0,1.92-.94,2.52c-.11.07-.24.13-.45.24Z"/></svg>