<svg xmlns="http://www.w3.org/2000/svg" width="32" height="32"><g fill="none" fill-rule="evenodd"><circle cx="16" cy="16" r="16" fill="#2b95ef"/><path fill="#FFF" fill-rule="nonzero" d="M24.2,8h-.71a.68.68,0,0,0-.67.6l-3.29,5.88-2.42-4.3A1.59,1.59,0,0,0,16,9.64a1.6,1.6,0,0,0-1.08.56c-.81,1.43-1.61,2.87-2.42,4.31L9.19,8.57l0-.06A.67.67,0,0,0,8.51,8H7.8a.69.69,0,0,0-.68.68V23.28A.69.69,0,0,0,7.8,24h.71a.68.68,0,0,0,.64-.47l3.37-6L15,21.9a1.38,1.38,0,0,0,1.67.35,1.24,1.24,0,0,0,.43-.4c.31-.42,1.24-2.08,2.42-4.37l3.29,5.87c.28.32.43.61.89.61h.49a.69.69,0,0,0,.68-.68V8.72A.69.69,0,0,0,24.2,8Zm-15,12.43V11.52L11.69,16Zm6.85.29L13.35,16,16,11.23,18.7,16Zm6.79-.37L20.36,16l2.46-4.39Z"/></g></svg>