<svg xmlns="http://www.w3.org/2000/svg" width="32" height="32" viewBox="0 0 32 32"><defs><style>.a{fill:#006fe8;}.b{fill:#fff;}</style></defs><title>ren</title><circle class="a" cx="16" cy="16" r="16"/><polygon class="b" points="8.8 9.04 10.57 8.02 10.81 8.43 17.35 4.66 16.88 4.38 16.4 4.11 16.16 3.97 5.5 10.12 5.5 10.4 8.56 8.63 8.8 9.04"/><polygon class="b" points="8.8 12.92 13.93 9.96 14.17 10.37 20.71 6.6 20.23 6.32 19.75 6.04 19.51 5.91 5.5 13.99 5.5 14.27 8.56 12.5 8.8 12.92"/><polygon class="b" points="8.8 14.86 15.6 10.93 15.84 11.34 22.38 7.56 21.9 7.29 21.43 7.01 21.18 6.87 5.5 15.93 5.5 16.21 8.56 14.44 8.8 14.86"/><polygon class="b" points="8.8 16.79 17.33 11.87 17.57 12.28 24.06 8.53 23.58 8.25 23.1 7.98 22.86 7.84 5.5 17.87 5.5 18.14 8.56 16.37 8.8 16.79"/><polygon class="b" points="8.8 18.72 19 12.83 19.24 13.25 25.73 9.5 25.26 9.22 24.78 8.94 24.54 8.81 5.5 19.8 5.5 20.07 8.56 18.31 8.8 18.72"/><polygon class="b" points="26.15 10 25.91 9.86 5.5 21.65 5.5 21.92 8.52 20.18 8.75 20.59 18.81 14.79 19.04 15.19 26.5 10.89 26.5 10.34 26.5 10.21 26.15 10"/><polygon class="b" points="6.5 23.19 8.21 22.2 8.45 22.61 18.64 16.73 18.88 17.15 26.5 12.75 26.5 12.19 26.5 11.64 26.5 11.36 6.26 23.05 6.5 23.19"/><polyline class="b" points="18.64 18.67 18.88 19.09 26.5 14.69 26.5 14.13 26.5 13.58 26.5 13.3 7.94 24.02 8.18 24.16 9.92 23.15 10.16 23.57"/><polygon class="b" points="9.86 25.13 11.6 24.11 11.84 24.53 18.64 20.6 18.88 21.02 26.5 16.62 26.5 16.07 26.5 15.52 26.5 15.24 9.61 24.98 9.86 25.13"/><polygon class="b" points="11.53 26.09 13.28 25.09 13.52 25.5 18.64 22.54 18.88 22.95 26.5 18.55 26.5 18 26.5 17.45 26.5 17.18 11.29 25.95 11.53 26.09"/><polygon class="b" points="12.97 26.92 13.21 27.06 14.96 26.05 15.19 26.47 18.64 24.47 18.88 24.89 26.5 20.49 26.5 19.94 26.5 19.38 26.5 19.11 12.97 26.92"/><polygon class="b" points="14.88 28.03 16.63 27.02 16.87 27.44 18.64 26.41 18.88 26.83 26.5 22.43 26.5 21.88 26.5 21.32 26.5 21.05 14.65 27.89 14.88 28.03"/><polygon class="b" points="19.03 5.63 18.55 5.35 18.55 5.35 18.07 5.08 17.83 4.93 5.5 12.06 5.5 12.33 8.56 10.57 8.8 10.98 12.25 8.99 12.49 9.4 19.03 5.63"/></svg>