<svg xmlns="http://www.w3.org/2000/svg" width="32" height="32"><circle cx="16" cy="16" r="16" fill="#006fe8"/><path d="M8.8 9l1.8-1 .2.4 6.6-3.7-1-.6-.2-.1-10.7 6.1v.3l3.1-1.8zm0 3.9l5.1-2.9.3.4 6.5-3.8-.5-.3-.4-.3-.3-.1-14 8.1v.3l3.1-1.8zm0 2l6.8-4 .2.4 6.6-3.7-1-.6-.2-.1-15.7 9v.3l3.1-1.8zm0 1.9l8.5-4.9.3.4 6.5-3.8-.5-.3-.5-.2-.2-.2L5.5 17.9v.2l3.1-1.7zm0 1.9L19 12.8l.2.4 6.5-3.7-.4-.3-.5-.3-.3-.1-19 11v.3l3.1-1.8zM26.1 10l-.2-.1L5.5 21.6v.3l3-1.7.3.4 10-5.8.2.4 7.5-4.3v-.7zM6.5 23.2l1.7-1 .2.4 10.2-5.9.3.4 7.6-4.4v-1.3L6.3 23zm12.1-4.5l.3.4 7.6-4.4v-1.4L7.9 24l.3.2 1.7-1.1.3.5m-.3 1.5l1.7-1 .2.4 6.8-3.9.3.4 7.6-4.4v-1.4L9.6 25zm1.6 1l1.8-1 .2.4 5.1-3 .3.4 7.6-4.4v-1.3l-15.2 8.7zm1.5.8l.2.2L15 26l.2.5 3.4-2 .3.4 7.6-4.4v-1.4zm1.9 1.1l1.7-1 .3.4 1.7-1 .3.4 7.6-4.4V21l-11.9 6.9zM19 5.6l-.5-.3-.4-.2-.3-.2-12.3 7.2v.2l3.1-1.7.2.4 3.4-2 .3.4z" fill="#fff"/></svg>