<svg xmlns="http://www.w3.org/2000/svg" width="32" height="32"><circle cx="16" cy="16" r="16" fill="#ff4f0e"/><path d="M8.1 18.6c-.1-2 .6-3.9 2-5.3l2.9-3.1c.6-.6 1.1-1.4 1.5-2.2.3-.9.5-1.8.3-2.8V5c0-.1 0-.2.1-.4.1 0 .3 0 .4.1 1.4 1.3 2.8 2.6 3.1 4.6.1 1.2 0 2.3-.4 3.4-.3.6-.2 1.4.2 1.9.5.7 1.4.9 2.2.5a1.78 1.78 0 0 0 1-1.6c0-.1.1-.2.1-.3.1.1.2.1.3.2.4.6.9 1.2 1.2 1.8.7 1.2 1.1 2.6 1 4 0 1.8-.9 3.6-2.5 4.6l-1.6.9-2 1c-.5.3-.9.7-1.1 1.2-.3.6-.4.5-1 .4-1.6-.4-3.1-1.2-4.4-2.2-1.5-1.2-2.6-2.8-3.1-4.7-.2-.6-.3-1.2-.3-1.8h.1zm3.8-1.8c-.4 0-.4 0-.4.4v2.1c0 .4.2.5.5.5l2-.1c.5 0 .5 0 .5.5v2c0 .7.1.6.6.5h2.1c.3 0 .3-.1.3-.3v-2.3c0-.4 0-.5.5-.5h2.2c.3 0 .4-.1.4-.4v-2.1c0-.4-.1-.5-.5-.5m-.2-6.1c0-.5.2-.9.4-1.3.1-.1.2-.3.3-.5.3-.3.5-.7.4-1.2 0-.1.1-.2.1-.3s.2.1.2.2c.6.8 1 1.6 1.2 2.6.1.4-.1.9-.4 1.2l-.7.8c-.1.1-.2.2-.4.1-.3-.3-.6-.6-.9-1-.1-.2-.2-.4-.2-.6z" fill="#fff"/></svg>