<svg xmlns="http://www.w3.org/2000/svg" width="32" height="32" viewBox="0 0 32 32"><defs><style>.a{fill:#ff4f0e;}.b{fill:#fff;}</style></defs><title>tfuel</title><circle class="a" cx="16" cy="16" r="16"/><path class="b" d="M8.1,18.59a7.15,7.15,0,0,1,2-5.26c1-1.07,2-2.09,2.93-3.14A7.47,7.47,0,0,0,14.5,8a5.77,5.77,0,0,0,.33-2.79,1.07,1.07,0,0,1,0-.25c0-.12,0-.25.07-.37.12,0,.28,0,.36.09,1.43,1.27,2.84,2.57,3.12,4.62a7,7,0,0,1-.44,3.44,1.89,1.89,0,0,0,.21,1.93,1.72,1.72,0,0,0,2.18.48,1.7,1.7,0,0,0,1-1.59.9.9,0,0,1,.13-.31c.1.06.24.08.29.16.43.6.87,1.18,1.24,1.8a7,7,0,0,1,1,4,5.78,5.78,0,0,1-2.46,4.63,13.43,13.43,0,0,1-1.64.86c-.65.33-1.32.64-2,1a3.26,3.26,0,0,0-1.14,1.22c-.34.56-.35.55-1,.38a11.5,11.5,0,0,1-4.44-2.2,8.44,8.44,0,0,1-3.11-4.69A14.17,14.17,0,0,1,8,18.59Zm3.79-1.83c-.37,0-.43,0-.43.41,0,.71,0,1.41,0,2.11,0,.35.16.46.51.45l2-.07c.48,0,.53.05.52.53,0,.66,0,1.33,0,2s.07.58.58.55l1.42,0c.22,0,.44,0,.66,0s.28-.1.27-.3c0-.76,0-1.53-.05-2.29,0-.42,0-.47.45-.45l2.24,0c.32,0,.4-.1.4-.42,0-.69,0-1.38,0-2.07,0-.43-.07-.5-.5-.5"/><path class="b" d="M19.88,10.48a2.4,2.4,0,0,1,.44-1.27c.11-.15.2-.32.32-.47A1.52,1.52,0,0,0,21,7.55c0-.08.06-.18.09-.27s.18.08.23.15A6.53,6.53,0,0,1,22.49,10a1.36,1.36,0,0,1-.39,1.17l-.75.87c-.1.12-.23.23-.36.09a8.92,8.92,0,0,1-.92-1A1.84,1.84,0,0,1,19.88,10.48Z"/></svg>