<svg height="32" viewBox="0 0 32 32" width="32" xmlns="http://www.w3.org/2000/svg"><g fill="none"><circle cx="16" cy="16" fill="#1b5494" r="16"/><g fill="#fff"><path class="cls-2" d="M17.49,10.75c-1.87-.06-3.75,0-5.63,0-.28,0-.33.11-.33.36q0,2.34,0,4.68c0,.3.11.36.38.35.78,0,1.57,0,2.35,0,.33,0,.44.07.43.42,0,1,0,1.92,0,2.89,0,.11-.06.26,0,.32s.24-.05.34-.12a2,2,0,0,0,.9-1.48c.13-1,0-2,.08-3.07,0-.3-.1-.37-.37-.37-.74,0-1.47,0-2.21,0-.32,0-.41-.11-.39-.42,0-.59,0-1.19,0-1.78,0-.3.09-.36.37-.36,1.26,0,2.53,0,3.8,0a6.65,6.65,0,0,1,2.21.32,5,5,0,0,1,3.38,3.23,5.46,5.46,0,0,1-1.53,5.91A9.16,9.16,0,0,1,15.45,24a14.34,14.34,0,0,1-2.36-.09,3.32,3.32,0,0,0-.7-.13l-.14,0a1.34,1.34,0,0,0-.72-.16l.48.26a9.09,9.09,0,0,0,1.76.66,8.55,8.55,0,0,0,5.34-.16c2.56-1,4.5-2.56,5.18-5.35a6.26,6.26,0,0,0-1.19-5.51A7.06,7.06,0,0,0,17.49,10.75Z"/><path class="cls-2" d="M14.92,22.3A5.85,5.85,0,0,0,19.39,19a7.44,7.44,0,0,0,.53-3.27c0-1.12,0-1.11-1.1-1-.2,0-.26.07-.26.27,0,.53,0,1.06,0,1.59a4.79,4.79,0,0,1-1.71,3.64,5.33,5.33,0,0,1-6.32-.3,5.16,5.16,0,0,1-1.8-3.61A6.49,6.49,0,0,1,11,10.37a8.22,8.22,0,0,1,4.41-1.86,9.47,9.47,0,0,1,5.12.74A10.54,10.54,0,0,1,24,11.89l.72,1a2.74,2.74,0,0,0-.55-1.27,8.39,8.39,0,0,0-4.12-3.66,9.4,9.4,0,0,0-7.36-.06A8.38,8.38,0,0,0,7.28,16,6.64,6.64,0,0,0,14.92,22.3Z"/></g></g></svg>